<svg xmlns="http://www.w3.org/2000/svg" width="135" height="82.961" viewBox="0 0 135 82.961"><defs><style>.a{fill:#f2f2f2;}.b{fill:#616468;}.c{fill:#d5d5d5;}.d{fill:#fff;}.e{fill:#219dd8;}</style></defs><g transform="translate(-733 -348)"><path class="a" d="M67.5,73.857c37.28,0,67.5,3.358,67.5,7.5s-30.22,7.5-67.5,7.5S0,85.5,0,81.357,30.22,73.857,67.5,73.857Z" transform="translate(733 342.104)"/><g transform="translate(-2 137.961)"><g transform="translate(6.231 -144)"><g transform="translate(-3)"><g transform="matrix(0.966, -0.259, 0.259, 0.966, 756.902, 365.807)"><path class="b" d="M40.688,7.75H31a7.75,7.75,0,1,0-15.5,0H5.812A5.814,5.814,0,0,0,0,13.562V56.187A5.814,5.814,0,0,0,5.812,62H40.688A5.814,5.814,0,0,0,46.5,56.187V13.562A5.814,5.814,0,0,0,40.688,7.75ZM11.625,51.344ZM23.25,4.844A2.906,2.906,0,1,1,20.344,7.75,2.9,2.9,0,0,1,23.25,4.844Z" transform="translate(2.7 1)"/></g><g transform="translate(770.3 362)"><path class="c" d="M42,8H32A8,8,0,0,0,16,8H6a6,6,0,0,0-6,6V58a6,6,0,0,0,6,6H42a6,6,0,0,0,6-6V14A6,6,0,0,0,42,8ZM12,53a3,3,0,1,1,3-3A2.993,2.993,0,0,1,12,53Zm0-12a3,3,0,1,1,3-3A2.993,2.993,0,0,1,12,41Zm0-12a3,3,0,1,1,3-3A2.993,2.993,0,0,1,12,29ZM24,5a3,3,0,1,1-3,3A2.993,2.993,0,0,1,24,5ZM40,51a1,1,0,0,1-1,1H21a1,1,0,0,1-1-1V49a1,1,0,0,1,1-1H39a1,1,0,0,1,1,1Zm0-12a1,1,0,0,1-1,1H21a1,1,0,0,1-1-1V37a1,1,0,0,1,1-1H39a1,1,0,0,1,1,1Zm0-12a1,1,0,0,1-1,1H21a1,1,0,0,1-1-1V25a1,1,0,0,1,1-1H39a1,1,0,0,1,1,1Z" transform="translate(2.7 1)"/></g></g></g><circle class="d" cx="10" cy="10" r="10" transform="translate(808 254)"/><path class="e" d="M31.265,27.408l-6.173-6.173A1.485,1.485,0,0,0,24.04,20.8H23.031A12.872,12.872,0,1,0,20.8,23.031V24.04a1.485,1.485,0,0,0,.433,1.052l6.173,6.173a1.48,1.48,0,0,0,2.1,0l1.752-1.752A1.493,1.493,0,0,0,31.265,27.408ZM12.877,20.8A7.925,7.925,0,1,1,20.8,12.877,7.92,7.92,0,0,1,12.877,20.8Z" transform="translate(804.9 251)"/></g></g></svg>