<svg xmlns="http://www.w3.org/2000/svg" width="117" height="86.857" viewBox="0 0 117 86.857"><g transform="translate(-437 -371.143)"><path d="M25-41.286a8.309,8.309,0,0,1,1.714,2.714,8.245,8.245,0,0,1,.714,3.143V5.714a3.306,3.306,0,0,1-1,2.429,3.306,3.306,0,0,1-2.429,1H-24a3.306,3.306,0,0,1-2.429-1,3.306,3.306,0,0,1-1-2.429V-51.429a3.306,3.306,0,0,1,1-2.429,3.306,3.306,0,0,1,2.429-1H8a8.245,8.245,0,0,1,3.143.714,8.309,8.309,0,0,1,2.714,1.714ZM9.143-50v13.429H22.571a3.9,3.9,0,0,0-.786-1.464L10.607-49.214A3.9,3.9,0,0,0,9.143-50ZM22.857,4.571V-32H8a3.306,3.306,0,0,1-2.429-1,3.306,3.306,0,0,1-1-2.429V-50.286H-22.857V4.571Z" transform="translate(495.5 426)" fill="#bcbbbb"/><path d="M11.143-11.906a.969.969,0,0,1-.348.643L5.933-6.522,7.085.174A2.025,2.025,0,0,1,7.1.442a.789.789,0,0,1-.141.475.473.473,0,0,1-.408.194A1.084,1.084,0,0,1,6.013.951L0-2.21-6.013.951a1.138,1.138,0,0,1-.536.161A.487.487,0,0,1-6.971.917.789.789,0,0,1-7.112.442,2.175,2.175,0,0,1-7.085.174l1.152-6.7-4.875-4.741a1.02,1.02,0,0,1-.335-.643q0-.5.75-.616L-3.67-13.5l3.013-6.094q.254-.549.656-.549t.656.549L3.67-13.5l6.723.978Q11.143-12.4,11.143-11.906Z" transform="translate(495.5 419)" fill="#bcbbbb"/><path d="M58.5,0C90.809,0,117,2.91,117,6.5S90.809,13,58.5,13,0,10.09,0,6.5,26.191,0,58.5,0Z" transform="translate(437 445)" fill="#f2f2f2"/></g></svg>